<?xml version="1.0" standalone="no"?>
<!DOCTYPE svg PUBLIC "-//W3C//DTD SVG 20010904//EN"
 "http://www.w3.org/TR/2001/REC-SVG-20010904/DTD/svg10.dtd">
<svg version="1.0" xmlns="http://www.w3.org/2000/svg"
 width="1585.000000pt" height="1585.000000pt" viewBox="0 0 1585.000000 1585.000000"
 preserveAspectRatio="xMidYMid meet">
<metadata>
Created by potrace 1.14, written by Peter Selinger 2001-2017
</metadata>
<g transform="translate(0.000000,1585.000000) scale(0.100000,-0.100000)"
fill="#000000" stroke="none">
<path d="M6140 12285 c0 -1290 -2 -2345 -4 -2345 -2 0 -916 297 -2031 660
-1116 363 -2029 659 -2030 657 -6 -8 -935 -2965 -935 -2974 0 -6 15 -16 33
-22 17 -6 941 -292 2052 -636 1111 -344 2027 -628 2036 -632 14 -7 2 -29 -72
-133 -681 -962 -2628 -3737 -2625 -3745 1 -5 576 -418 1277 -916 943 -672
1277 -904 1285 -895 6 6 626 821 1379 1811 752 990 1375 1808 1384 1817 15 15
64 -48 701 -910 1718 -2325 2012 -2722 2021 -2722 9 0 2517 1778 2547 1805 10
9 -230 358 -1174 1711 -653 934 -1261 1805 -1351 1933 -114 164 -160 237 -151
242 7 4 938 293 2068 643 1130 350 2056 638 2058 640 3 4 -927 2959 -937 2975
-4 5 -867 -271 -2031 -650 -1114 -362 -2028 -659 -2032 -659 -5 0 -8 1055 -8
2345 l0 2345 -1730 0 -1730 0 0 -2345z"/>
</g>
</svg>
